# xmcd
#
# Track frame offsets:
#	183
#	12423
#	22623
#	32113
#	43848
#	54775
#	63755
#	74058
#	86463
#	96300
#	107265
#	123230
#	133708
#	148223
#	158565
#	170805
#	184778
#	198600
#	209540
#	222888
#
# Disc length: 3168 seconds
#
# Revision: 2
# Processed by: cddbd v1.5.2PL0 Copyright (c) Steve Scherf et al.
# Submitted via: audiograbber 1.83.01
#
DISCID=1d0c5e14
DTITLE=Warner Mack - The Bridge Washed Out - 20 Country Hits
DYEAR=1993
DGENRE=Country
TTITLE0=Is It Wrong (For Loving You)
TTITLE1=Sittin' In An All Nite Cafe
TTITLE2=The Bridge Washed Out
TTITLE3=Talkin' To The Wall
TTITLE4=Drifting Apart
TTITLE5=How Long Will It Take
TTITLE6=Dan't Wake Me (I'm Dreaming)
TTITLE7=I'll Still Be Missing You
TTITLE8=Love Hungry
TTITLE9=Draggin' The River
TTITLE10=These Crazy Thoughts
TTITLE11=I Wanna Go Back
TTITLE12=Got Bless The Lonely People
TTITLE13=Hollywood And Wine
TTITLE14=Pull Up A Pillow
TTITLE15=Joy Train
TTITLE16=Goodbyes Don't Come Easy
TTITLE17=Float Away
TTITLE18=Saturday Night Live
TTITLE19=Blue
EXTD=
EXTT0=
EXTT1=
EXTT2=
EXTT3=
EXTT4=
EXTT5=
EXTT6=
EXTT7=
EXTT8=
EXTT9=
EXTT10=
EXTT11=
EXTT12=
EXTT13=
EXTT14=
EXTT15=
EXTT16=
EXTT17=
EXTT18=
EXTT19=
PLAYORDER=
